<svg width="1920" height="700" viewBox="0 0 1920 700" fill="none" xmlns="http://www.w3.org/2000/svg">
  <defs>
    <linearGradient id="testBlue1" x1="0%" y1="0%" x2="100%" y2="100%">
      <stop offset="0%" style="stop-color:#2563eb;stop-opacity:0.06" />
      <stop offset="100%" style="stop-color:#1d4ed8;stop-opacity:0.02" />
    </linearGradient>
    <linearGradient id="testBlue2" x1="100%" y1="0%" x2="0%" y2="100%">
      <stop offset="0%" style="stop-color:#0ea5e9;stop-opacity:0.05" />
      <stop offset="100%" style="stop-color:#2563eb;stop-opacity:0.02" />
    </linearGradient>
    <filter id="testShadow" x="-20%" y="-20%" width="140%" height="140%">
      <feDropShadow dx="0" dy="2" stdDeviation="4" flood-color="#000" flood-opacity="0.08"/>
    </filter>
  </defs>

  <!-- Background gradients -->
  <circle cx="100" cy="100" r="250" fill="url(#testBlue1)" />
  <circle cx="1820" cy="80" r="280" fill="url(#testBlue2)" />
  <circle cx="1750" cy="620" r="200" fill="url(#testBlue1)" />
  <circle cx="150" cy="600" r="180" fill="url(#testBlue2)" />

  <!-- Large decorative quote marks -->
  <g opacity="0.06" fill="#2563eb">
    <text x="30" y="180" font-family="Georgia, serif" font-size="200">"</text>
    <text x="1720" y="650" font-family="Georgia, serif" font-size="200">"</text>
  </g>

  <!-- Review Card 1 - Left Top -->
  <g opacity="0.07" transform="translate(60, 200)" filter="url(#testShadow)">
    <rect width="200" height="180" rx="12" fill="#ffffff" stroke="#e2e8f0" stroke-width="1"/>
    <!-- Stars -->
    <g transform="translate(15, 15)">
      <polygon points="10,0 12,6 18,6 13,10 15,16 10,12 5,16 7,10 2,6 8,6" fill="#eab308"/>
      <polygon points="30,0 32,6 38,6 33,10 35,16 30,12 25,16 27,10 22,6 28,6" fill="#eab308"/>
      <polygon points="50,0 52,6 58,6 53,10 55,16 50,12 45,16 47,10 42,6 48,6" fill="#eab308"/>
      <polygon points="70,0 72,6 78,6 73,10 75,16 70,12 65,16 67,10 62,6 68,6" fill="#eab308"/>
      <polygon points="90,0 92,6 98,6 93,10 95,16 90,12 85,16 87,10 82,6 88,6" fill="#eab308"/>
    </g>
    <!-- Review text lines -->
    <rect x="15" y="45" width="170" height="8" rx="2" fill="#e2e8f0"/>
    <rect x="15" y="60" width="150" height="8" rx="2" fill="#e2e8f0"/>
    <rect x="15" y="75" width="160" height="8" rx="2" fill="#e2e8f0"/>
    <rect x="15" y="90" width="120" height="8" rx="2" fill="#e2e8f0"/>
    <!-- Avatar and name -->
    <circle cx="35" cy="140" r="20" fill="#f1f5f9"/>
    <circle cx="35" cy="135" r="8" fill="#2563eb" opacity="0.5"/>
    <path d="M22 152 Q35 162 48 152" fill="#2563eb" opacity="0.3"/>
    <rect x="65" y="130" width="80" height="8" rx="2" fill="#1e293b" opacity="0.5"/>
    <rect x="65" y="145" width="60" height="6" rx="2" fill="#64748b" opacity="0.5"/>
  </g>

  <!-- Review Card 2 - Left Bottom -->
  <g opacity="0.06" transform="translate(80, 450)" filter="url(#testShadow)">
    <rect width="180" height="160" rx="12" fill="#ffffff" stroke="#e2e8f0" stroke-width="1"/>
    <!-- Stars -->
    <g transform="translate(12, 12)">
      <polygon points="8,0 10,5 15,5 11,8 12,13 8,10 4,13 5,8 1,5 6,5" fill="#eab308"/>
      <polygon points="24,0 26,5 31,5 27,8 28,13 24,10 20,13 21,8 17,5 22,5" fill="#eab308"/>
      <polygon points="40,0 42,5 47,5 43,8 44,13 40,10 36,13 37,8 33,5 38,5" fill="#eab308"/>
      <polygon points="56,0 58,5 63,5 59,8 60,13 56,10 52,13 53,8 49,5 54,5" fill="#eab308"/>
      <polygon points="72,0 74,5 79,5 75,8 76,13 72,10 68,13 69,8 65,5 70,5" fill="#eab308"/>
    </g>
    <!-- Review text -->
    <rect x="12" y="38" width="156" height="7" rx="2" fill="#e2e8f0"/>
    <rect x="12" y="52" width="140" height="7" rx="2" fill="#e2e8f0"/>
    <rect x="12" y="66" width="130" height="7" rx="2" fill="#e2e8f0"/>
    <!-- Avatar -->
    <circle cx="30" cy="120" r="18" fill="#f1f5f9"/>
    <circle cx="30" cy="115" r="7" fill="#0ea5e9" opacity="0.5"/>
    <path d="M18 130 Q30 138 42 130" fill="#0ea5e9" opacity="0.3"/>
    <rect x="58" y="112" width="70" height="7" rx="2" fill="#1e293b" opacity="0.5"/>
    <rect x="58" y="125" width="50" height="5" rx="2" fill="#64748b" opacity="0.5"/>
  </g>

  <!-- Review Card 3 - Right Top -->
  <g opacity="0.07" transform="translate(1650, 100)" filter="url(#testShadow)">
    <rect width="210" height="190" rx="12" fill="#ffffff" stroke="#e2e8f0" stroke-width="1"/>
    <!-- Stars -->
    <g transform="translate(15, 15)">
      <polygon points="10,0 12,6 18,6 13,10 15,16 10,12 5,16 7,10 2,6 8,6" fill="#eab308"/>
      <polygon points="30,0 32,6 38,6 33,10 35,16 30,12 25,16 27,10 22,6 28,6" fill="#eab308"/>
      <polygon points="50,0 52,6 58,6 53,10 55,16 50,12 45,16 47,10 42,6 48,6" fill="#eab308"/>
      <polygon points="70,0 72,6 78,6 73,10 75,16 70,12 65,16 67,10 62,6 68,6" fill="#eab308"/>
      <polygon points="90,0 92,6 98,6 93,10 95,16 90,12 85,16 87,10 82,6 88,6" fill="#eab308"/>
    </g>
    <!-- Quote icon -->
    <text x="170" y="35" font-family="Georgia, serif" font-size="30" fill="#2563eb" opacity="0.3">"</text>
    <!-- Review text lines -->
    <rect x="15" y="50" width="180" height="8" rx="2" fill="#e2e8f0"/>
    <rect x="15" y="65" width="160" height="8" rx="2" fill="#e2e8f0"/>
    <rect x="15" y="80" width="170" height="8" rx="2" fill="#e2e8f0"/>
    <rect x="15" y="95" width="140" height="8" rx="2" fill="#e2e8f0"/>
    <!-- Avatar and info -->
    <circle cx="38" cy="150" r="22" fill="#f1f5f9"/>
    <circle cx="38" cy="145" r="9" fill="#2563eb" opacity="0.5"/>
    <path d="M22 165 Q38 175 54 165" fill="#2563eb" opacity="0.3"/>
    <rect x="70" y="140" width="90" height="8" rx="2" fill="#1e293b" opacity="0.5"/>
    <rect x="70" y="155" width="70" height="6" rx="2" fill="#64748b" opacity="0.5"/>
  </g>

  <!-- Review Card 4 - Right Bottom -->
  <g opacity="0.06" transform="translate(1680, 380)" filter="url(#testShadow)">
    <rect width="180" height="170" rx="12" fill="#ffffff" stroke="#e2e8f0" stroke-width="1"/>
    <!-- Stars -->
    <g transform="translate(12, 12)">
      <polygon points="8,0 10,5 15,5 11,8 12,13 8,10 4,13 5,8 1,5 6,5" fill="#eab308"/>
      <polygon points="24,0 26,5 31,5 27,8 28,13 24,10 20,13 21,8 17,5 22,5" fill="#eab308"/>
      <polygon points="40,0 42,5 47,5 43,8 44,13 40,10 36,13 37,8 33,5 38,5" fill="#eab308"/>
      <polygon points="56,0 58,5 63,5 59,8 60,13 56,10 52,13 53,8 49,5 54,5" fill="#eab308"/>
      <polygon points="72,0 74,5 79,5 75,8 76,13 72,10 68,13 69,8 65,5 70,5" fill="#eab308"/>
    </g>
    <!-- Review text -->
    <rect x="12" y="40" width="156" height="7" rx="2" fill="#e2e8f0"/>
    <rect x="12" y="54" width="145" height="7" rx="2" fill="#e2e8f0"/>
    <rect x="12" y="68" width="155" height="7" rx="2" fill="#e2e8f0"/>
    <rect x="12" y="82" width="120" height="7" rx="2" fill="#e2e8f0"/>
    <!-- Avatar -->
    <circle cx="30" cy="130" r="18" fill="#f1f5f9"/>
    <circle cx="30" cy="125" r="7" fill="#0ea5e9" opacity="0.5"/>
    <path d="M18 142 Q30 150 42 142" fill="#0ea5e9" opacity="0.3"/>
    <rect x="58" y="122" width="75" height="7" rx="2" fill="#1e293b" opacity="0.5"/>
    <rect x="58" y="135" width="55" height="5" rx="2" fill="#64748b" opacity="0.5"/>
  </g>

  <!-- Heart/Like icons floating -->
  <g opacity="0.05">
    <path d="M350 150 C350 140 360 130 375 130 C390 130 400 145 400 145 C400 145 410 130 425 130 C440 130 450 140 450 150 C450 175 400 200 400 200 C400 200 350 175 350 150" fill="#ef4444"/>
    <path d="M1500 500 C1500 492 1508 485 1520 485 C1532 485 1540 497 1540 497 C1540 497 1548 485 1560 485 C1572 485 1580 492 1580 500 C1580 520 1540 540 1540 540 C1540 540 1500 520 1500 500" fill="#ef4444"/>
  </g>

  <!-- Chat bubbles with messages -->
  <g opacity="0.04">
    <rect x="350" y="400" width="150" height="70" rx="12" fill="#2563eb"/>
    <polygon points="365,470 365,490 385,470" fill="#2563eb"/>
    <rect x="365" y="420" width="120" height="6" rx="2" fill="#ffffff"/>
    <rect x="365" y="432" width="100" height="6" rx="2" fill="#ffffff"/>
    <rect x="365" y="444" width="80" height="6" rx="2" fill="#ffffff"/>
  </g>

  <g opacity="0.04">
    <rect x="1400" y="200" width="140" height="65" rx="12" fill="#0ea5e9"/>
    <polygon points="1525,265 1525,282 1508,265" fill="#0ea5e9"/>
    <rect x="1415" y="218" width="110" height="6" rx="2" fill="#ffffff"/>
    <rect x="1415" y="230" width="95" height="6" rx="2" fill="#ffffff"/>
    <rect x="1415" y="242" width="75" height="6" rx="2" fill="#ffffff"/>
  </g>

  <!-- Satisfaction badge - Center -->
  <g opacity="0.05" transform="translate(860, 50)">
    <circle cx="100" cy="60" r="55" fill="#ffffff" stroke="#22c55e" stroke-width="3"/>
    <text x="70" y="55" font-family="sans-serif" font-size="24" fill="#22c55e" font-weight="bold">98%</text>
    <text x="55" y="75" font-family="sans-serif" font-size="10" fill="#64748b">Satisfaction</text>
  </g>

  <!-- Thumbs up icons -->
  <g opacity="0.04">
    <g transform="translate(550, 250)">
      <path d="M20 40 L20 70 L35 70 L35 40 Z M35 42 L50 25 L55 35 L50 40 L65 40 L65 70 L35 70" fill="#2563eb"/>
    </g>
    <g transform="translate(1300, 450)">
      <path d="M20 40 L20 70 L35 70 L35 40 Z M35 42 L50 25 L55 35 L50 40 L65 40 L65 70 L35 70" fill="#0ea5e9"/>
    </g>
  </g>

  <!-- Floating star ratings -->
  <g opacity="0.04">
    <g transform="translate(600, 550)">
      <polygon points="15,0 18,10 28,10 20,16 23,26 15,20 7,26 10,16 2,10 12,10" fill="#eab308"/>
      <polygon points="40,0 43,10 53,10 45,16 48,26 40,20 32,26 35,16 27,10 37,10" fill="#eab308"/>
      <polygon points="65,0 68,10 78,10 70,16 73,26 65,20 57,26 60,16 52,10 62,10" fill="#eab308"/>
      <polygon points="90,0 93,10 103,10 95,16 98,26 90,20 82,26 85,16 77,10 87,10" fill="#eab308"/>
      <polygon points="115,0 118,10 128,10 120,16 123,26 115,20 107,26 110,16 102,10 112,10" fill="#eab308"/>
    </g>
  </g>

  <!-- Connection dots -->
  <g fill="#2563eb" opacity="0.04">
    <circle cx="700" cy="350" r="4"/>
    <circle cx="720" cy="350" r="4"/>
    <circle cx="740" cy="350" r="4"/>
    <circle cx="1180" cy="350" r="4"/>
    <circle cx="1200" cy="350" r="4"/>
    <circle cx="1220" cy="350" r="4"/>
  </g>
</svg>